# xmcd CD database file
#
# Track frame offsets:
#	150
#	20137
#	33520
#	54980
#	73260
#	90127
#	103350
#	120685
#	138135
#	151495
#	165295
#	178677
#	192720
#	205352
#	219370
#	235850
#
# Disc length: 3332 seconds
#
# Revision: 4
# Processed by: cddbd v1.5.2PL0 Copyright (c) Steve Scherf et al.
# Submitted via: jetAudio 7
#
DISCID=e10d0210
DTITLE=Clive Bruce - (008) One Last Kiss
DYEAR=2004
DGENRE=CD No 008
TTITLE0=One Last Kiss
TTITLE1=The Wonder Of You
TTITLE2=Please Wait For Me
TTITLE3=I Need You
TTITLE4=Love's Not Made Of Steel
TTITLE5=Raindrops Keep Falling On My Head
TTITLE6=Red River Rosie
TTITLE7=I Need More Of You
TTITLE8=Beautiful Sunday
TTITLE9=Desperately
TTITLE10=You're My Best Friend
TTITLE11=I'll Leave This World Loving You
TTITLE12=Family Bible
TTITLE13=All My Cloudy Days Are Gone
TTITLE14=Forever And Ever Amen
TTITLE15=I Won't Give Up
EXTD=
EXTT0=
EXTT1=
EXTT2=
EXTT3=
EXTT4=
EXTT5=
EXTT6=
EXTT7=
EXTT8=
EXTT9=
EXTT10=
EXTT11=
EXTT12=
EXTT13=
EXTT14=
EXTT15=
PLAYORDER=
